<svg width="18" height="15" viewBox="0 0 18 15" fill="none" xmlns="http://www.w3.org/2000/svg">
<path d="M14.8327 3.33333H13.9993V2.5C13.9993 1.83696 13.736 1.20107 13.2671 0.732233C12.7983 0.263392 12.1624 0 11.4993 0H3.16602C2.50297 0 1.86709 0.263392 1.39825 0.732233C0.929408 1.20107 0.666016 1.83696 0.666016 2.5V12.5C0.666016 13.163 0.929408 13.7989 1.39825 14.2678C1.86709 14.7366 2.50297 15 3.16602 15H14.8327C15.4957 15 16.1316 14.7366 16.6005 14.2678C17.0693 13.7989 17.3327 13.163 17.3327 12.5V5.83333C17.3327 5.17029 17.0693 4.53441 16.6005 4.06557C16.1316 3.59673 15.4957 3.33333 14.8327 3.33333ZM3.16602 1.66667H11.4993C11.7204 1.66667 11.9323 1.75446 12.0886 1.91074C12.2449 2.06702 12.3327 2.27899 12.3327 2.5V3.33333H3.16602C2.945 3.33333 2.73304 3.24554 2.57676 3.08926C2.42048 2.93298 2.33268 2.72101 2.33268 2.5C2.33268 2.27899 2.42048 2.06702 2.57676 1.91074C2.73304 1.75446 2.945 1.66667 3.16602 1.66667ZM15.666 10H14.8327C14.6117 10 14.3997 9.9122 14.2434 9.75592C14.0871 9.59964 13.9993 9.38768 13.9993 9.16667C13.9993 8.94565 14.0871 8.73369 14.2434 8.57741C14.3997 8.42113 14.6117 8.33333 14.8327 8.33333H15.666V10ZM15.666 6.66667H14.8327C14.1696 6.66667 13.5338 6.93006 13.0649 7.3989C12.5961 7.86774 12.3327 8.50362 12.3327 9.16667C12.3327 9.82971 12.5961 10.4656 13.0649 10.9344C13.5338 11.4033 14.1696 11.6667 14.8327 11.6667H15.666V12.5C15.666 12.721 15.5782 12.933 15.4219 13.0893C15.2657 13.2455 15.0537 13.3333 14.8327 13.3333H3.16602C2.945 13.3333 2.73304 13.2455 2.57676 13.0893C2.42048 12.933 2.33268 12.721 2.33268 12.5V4.85833C2.60041 4.95251 2.88221 5.00042 3.16602 5H14.8327C15.0537 5 15.2657 5.0878 15.4219 5.24408C15.5782 5.40036 15.666 5.61232 15.666 5.83333V6.66667Z" fill="black" fill-opacity="0.72"/>
</svg>
